<svg xmlns="http://www.w3.org/2000/svg" xmlns:xlink="http://www.w3.org/1999/xlink" version="1.1" x="0px" y="0px" viewBox="0 0 100 100" enable-background="new 0 0 100 100" xml:space="preserve"><path d="M83.25,50c0-15.992-11.349-29.38-26.415-32.54L44.432,5.056l-2.121,2.121l9.634,9.634C51.3,16.774,50.653,16.75,50,16.75  c-18.334,0-33.25,14.916-33.25,33.25c0,15.992,11.349,29.38,26.415,32.54l12.403,12.403l2.121-2.121l-9.634-9.634  C48.7,83.226,49.347,83.25,50,83.25C68.334,83.25,83.25,68.334,83.25,50z M20.75,50c0-16.128,13.122-29.25,29.25-29.25  c1.007,0,2.001,0.051,2.982,0.151L42.311,31.573l2.121,2.121l12.18-12.181C69.565,24.519,79.25,36.146,79.25,50  c0,16.129-13.121,29.25-29.25,29.25c-1.006,0-2.001-0.051-2.982-0.151l10.671-10.671l-2.121-2.121l-12.18,12.18  C30.435,75.481,20.75,63.854,20.75,50z"></path></svg>